<svg height="900pt" preserveAspectRatio="xMidYMid meet" viewBox="0 0 810 900" width="810pt" xmlns="http://www.w3.org/2000/svg"><g transform="matrix(.1 0 0 -.1 0 900)"><path d="m4770 7803c-95-10-289-47-365-69l-86-25-127 22c-108 18-154 20-307 16-210-5-314-27-459-96l-86-42-108 31c-388 109-759 130-1047 59-105-26-284-114-363-179-166-136-274-336-329-606-28-140-25-488 4-652 116-636 328-1320 525-1692 111-211 240-364 358-426 49-26 65-29 145-29 101 0 142 15 225 85l45 37 18-23c81-108 554-188 737-125 36 12 75 29 87 37s25 14 28 14 5-39 5-87c0-49 5-167 10-263 28-486 69-645 200-777 120-120 251-168 455-166 110 1 148 5 250 32 172 44 307 113 395 201 85 85 151 211 180 347 20 91 78 506 100 719l12 112 123-6c270-11 515 51 660 167 143 116 244 313 215 421-30 110-113 141-285 105-85-18-360-32-368-18-3 5 13 40 35 78 72 122 224 435 292 598 229 551 347 1134 292 1446-24 135-58 200-167 315-119 126-236 213-384 286-173 86-304 124-505 149-79 10-331 13-410 4zm437-159c203-30 385-97 540-200 100-66 271-232 302-293 59-115 82-337 57-546-60-506-276-1097-590-1618-42-70-74-132-71-136 21-35 247-41 416-11 63 11 131 20 152 20 99 0 156-85 113-168-20-39-123-134-195-180-157-102-477-166-665-133-45 8-72 9-79 2-5-5-16-60-23-123-40-321-87-654-105-742-54-265-165-401-396-486-159-57-332-75-448-45-87 23-152 62-226 135-58 58-69 76-102 162-62 162-87 404-87 825 0 123-3 223-6 223s-20-12-37-26c-47-39-160-93-235-110-143-35-357-14-479 46-106 52-146 127-107 199 27 50 86 79 242 118 73 18 151 43 173 55 32 18 129 124 129 141 0 2-27 7-60 10-33 4-94 20-135 36l-75 29-167-191c-324-369-353-392-488-392-60 1-79 6-133 34-114 62-229 205-336 419-179 358-380 1060-461 1612-21 139-16 402 10 550 67 373 242 589 555 683 138 42 205 50 395 51 245 1 440-31 700-114l100-32 62 33c35 19 63 37 63 41 0 8 130 50 215 69 89 20 405 17 523-4 90-17 95-17 160 2 232 67 563 90 799 55z"/><path d="m4770 7515c-8-2-55-9-103-15l-89-12 71-39c295-160 521-393 681-701 95-183 112-242 111-370-1-59-10-170-21-245-24-168-25-268-4-438 9-71 16-188 16-260 0-146-20-241-73-354-32-69-27-104 8-54 130 185 340 634 446 953 98 294 147 537 154 765 8 242-11 300-146 435-156 156-356 262-596 315-64 15-415 30-455 20z"/><path d="m3810 7459c-339-52-583-282-709-667-57-173-100-432-70-419 8 3 50 21 94 40 264 113 482 98 608-43 58-65 83-129 114-305 21-115 26-172 27-320 0-217-17-315-89-487-63-151-130-327-138-359-6-25-5-26 36-26 91 0 178-60 229-156 22-41 23-50 29-522 9-614 21-738 86-871 89-185 239-247 470-194 282 64 381 171 433 463 36 204 103 744 119 959 14 181 54 260 154 304 23 10 44 19 46 21 2 1-22 35-52 75-31 40-92 141-135 223-43 83-111 211-150 285-80 152-147 314-183 440-19 69-24 109-24 215 0 124 1 133 29 188 73 144 208 207 443 207 57 0 103 2 103 5 0 2-16 41-36 87-140 317-418 610-705 742-89 41-206 78-314 101-97 20-326 28-415 14z"/><path d="m2439 7450c-371-47-583-243-662-610-16-76-20-134-21-285-1-213 9-287 91-654 206-933 502-1545 729-1508 54 9 101 50 236 207 69 80 159 183 201 229l77 84-43 46c-93 100-153 213-182 345-19 83-18 138 4 464 5 82 6 210 2 304-25 492 96 931 334 1209 25 29 45 56 45 60 0 10-223 66-355 89-135 23-357 33-456 20z"/><path d="m5047 6360c-67-12-133-46-162-84-93-122-36-388 163-766 36-69 94-179 128-244l62-120 22 70c32 99 37 251 15 444-24 206-23 301 5 512 13 98 21 180 18 184-11 10-200 14-251 4zm91-61c38-13 46-32 27-69s-74-70-116-70c-69 0-131 66-99 105 14 17 92 43 131 44 14 1 40-4 57-10z"/><path d="m3285 6319c-71-21-214-84-250-112-18-14-19-29-20-268 0-148-7-308-15-382-13-117-13-137 3-210 47-229 219-404 426-437 36-5 65-8 66-7s16 45 34 97 57 152 86 221c30 69 67 166 82 215 26 85 27 99 28 299 0 160-4 233-18 305-36 193-62 245-142 281-55 25-187 24-280-2zm285-71c35-18 46-29 48-52 6-53-73-105-141-92-42 8-91 48-107 87-13 30-12 33 14 55 37 33 123 33 186 2z"/><path d="m5299 4741c-71-22-98-60-102-143l-2-52 45-14c33-10 80-12 175-8 157 6 296 38 394 92 72 39 135 84 128 90-2 3-26 0-51-6-84-19-261-28-348-19-58 7-101 18-144 39-34 17-63 30-65 29-2 0-16-4-30-8z"/><path d="m3652 4723c-7-2-44-44-83-91-115-142-155-165-363-214-148-35-150-42-23-74 106-27 253-25 340 5 85 29 174 88 226 150 53 63 60 97 31 156s-81 87-128 68z"/><path d="m5090 2190c-129-16-210-63-253-144-31-59-31-203 0-262 46-86 103-112 369-168 216-46 238-53 274-82 45-38 60-75 60-144 0-142-76-205-261-217-223-15-370 73-386 231l-6 56h-55-55l7-62c11-110 70-204 155-247 147-75 414-80 558-10 104 50 153 132 153 253 0 83-15 131-56 175-45 51-123 84-274 116-300 65-339 79-377 135-18 26-23 47-23 98 0 134 72 191 251 200 122 6 207-14 264-61 43-35 74-96 75-144v-33h56 57l-6 50c-13 108-78 194-175 230-95 36-224 47-352 30z"/><path d="m6125 2194c-224-35-380-175-430-386-20-84-19-245 1-327 48-195 192-334 389-376 131-27 322-12 412 33l38 20 80-69 80-68 33 32c17 17 32 34 32 37 0 6-34 35-137 117-13 10-10 18 24 56 90 103 126 212 126 382-1 181-45 304-148 406-102 101-197 138-365 144-58 2-118 1-135-1zm278-103c111-43 203-142 244-261 14-43 18-85 18-195-1-131-3-145-29-208-67-161-219-257-406-257-269 0-451 194-450 479 1 232 116 401 310 456 79 22 237 15 313-14z"/><path d="m6850 1645v-525h379 379l6 31c3 17 6 35 6 40s-150 10-332 11l-333 3-3 483-2 482h-50-50z"/><path d="m733 2043-43-4v-434c0-239 4-436 8-439 5-3 25-3 45 1l37 6v183 184h178c213 0 238 4 304 44 63 38 97 97 105 183 11 117-38 216-127 257-41 19-65 21-255 22-116 1-229-1-252-3zm467-88c54-32 82-95 78-177-4-80-24-113-88-145-41-21-57-23-227-23h-183v186 186l193-4c171-3 196-5 227-23z"/><path d="m2788 1838-3-93-47-3c-46-3-48-5-48-33s1-29 50-29h50v-226c0-135 4-233 10-245 17-31 64-49 130-49h60v30c0 29-2 30-45 30-32 0-51 6-65 20-19 19-20 33-20 230v210h65 65v30 30h-65-65v95 95h-35-34z"/><path d="m1575 1742c-68-22-137-91-160-161-22-67-23-183-1-249s79-129 140-158c63-29 192-33 275-8 76 22 144 92 167 169 26 90 17 214-21 284-52 95-145 142-279 140-39 0-93-8-121-17zm226-57c92-33 133-104 132-230 0-167-73-244-231-245-105 0-162 33-208 120-29 53-26 200 4 257 23 45 69 84 117 101 45 16 137 14 186-3z"/><path d="m2216 1746c-90-25-140-108-116-195 20-75 62-94 274-126 144-22 176-42 176-108 0-23-6-49-13-58-36-47-152-70-252-49-69 14-125 61-125 104 0 24-4 26-40 26-35 0-40-3-40-23 0-12 10-43 23-67 35-70 92-94 233-99 139-4 204 12 254 64 30 31 35 43 38 99 4 59 2 65-28 99-37 42-86 59-220 77-118 16-161 28-187 53-48 43-18 124 55 148 52 18 171 15 214-5 37-18 68-61 68-95 0-18 6-21 40-21 35 0 40 3 40 23 0 12-10 43-22 67-35 68-94 94-222 97-62 2-120-2-150-11z"/><path d="m3170 1740c-117-40-178-149-167-300 6-96 40-168 99-210 57-41 108-53 213-48 77 3 98 8 138 31 25 15 53 37 62 49 14 21 15 17 15-63 0-109-24-161-91-197-40-21-54-23-145-20-118 4-146 17-175 84-18 40-23 44-54 44-42 0-46-20-15-79 23-46 57-75 108-93 50-17 246-17 295 1 50 17 103 64 130 115 21 39 22 54 25 364l3 322h-40-41v-45-44l-43 43c-30 29-57 46-89 54-68 17-165 14-228-8zm272-76c62-44 88-100 88-193 0-92-21-144-76-189-100-83-297-52-350 55-27 54-27 202 0 256 36 73 114 109 224 104 61-3 80-9 114-33z"/><path d="m3906 1750c-36-11-75-47-92-85-13-30-13-30-14 23v52h-40-40v-285-285h40 40v173c0 195 12 256 57 299 37 36 73 48 139 48h54v35 35l-57-1c-32 0-71-5-87-9z"/><path d="m4243 1742c-105-37-165-109-184-221-22-123 20-248 106-313 60-45 116-61 211-61 128 1 225 61 269 166l15 37h-42c-40 0-44-3-59-39-35-82-141-125-254-101-50 10-68 20-106 59-45 44-69 96-69 149v22h271 271l-6 48c-25 178-115 261-291 269-60 3-93-1-132-15zm229-63c61-31 118-116 118-176 0-10-53-13-230-13-141 0-230 4-230 10 0 28 44 120 68 142 72 68 183 83 274 37z"/></g></svg>